<svg width="28" height="21" viewBox="0 0 28 21" fill="none" xmlns="http://www.w3.org/2000/svg">
<path d="M16.9327 0.900314C16.4062 0.904022 15.8834 0.929976 15.3309 1.07829C14.7785 1.22659 14.226 1.46389 13.6402 1.84949C12.9135 1.4231 12.209 1.07087 11.5342 0.9893C10.6963 0.885483 9.91765 0.9411 9.01296 0.959638C7.94143 0.981885 7.24066 1.53063 6.1061 1.96814C4.97153 2.40566 3.51068 2.82834 1.44918 2.82834H0.5V11.9642L1.03391 12.2312L2.78397 13.0913L9.01296 20.0322L9.04262 20.0619C9.75451 20.7664 10.7148 20.9406 11.5639 20.8924C12.413 20.8442 13.2101 20.5958 13.8478 20.2102C15.2494 19.3648 19.0683 16.7101 19.0683 16.7101L19.1573 16.6508L19.2167 16.5914C19.669 16.1428 19.8952 15.5941 20.0472 15.0194L23.6956 13.1803L26.4245 12.2608L27.077 12.0532V2.82834H26.1279C24.0701 2.82834 22.6055 2.38341 21.471 1.93848C20.3364 1.49355 19.6467 0.952223 18.5641 0.929976C17.9857 0.918853 17.4592 0.896607 16.9327 0.900314ZM16.9623 2.79867C17.3887 2.79497 17.8819 2.81721 18.5048 2.82834C18.6049 2.83204 19.517 3.22136 20.7887 3.71819C21.864 4.14088 23.3582 4.51536 25.1787 4.63771V10.6887L22.9837 11.4303H22.9244L22.8651 11.4599L19.9879 12.9134C19.8284 12.4796 19.6097 12.0791 19.276 11.7269L19.2167 11.6379L15.1826 6.68438L14.5894 5.94283L13.8478 6.53607L11.2969 8.6124C10.4404 9.20564 9.74709 9.03508 9.04262 8.70139C8.8387 8.60499 8.84982 8.57533 8.68668 8.46409L13.0173 4.87501L13.0766 4.81568C14.3632 3.54022 15.153 3.099 15.8352 2.91732C16.1763 2.82463 16.536 2.80238 16.9623 2.79867ZM10.3477 2.82834C10.7111 2.82092 11.0151 2.82463 11.2969 2.858C11.5453 2.88766 11.8271 3.099 12.0681 3.18428C11.9717 3.27326 11.9013 3.32517 11.8012 3.42157C11.7789 3.44382 11.7641 3.45865 11.7419 3.4809L6.55102 7.78187L5.75015 8.43443L6.46204 9.17598C6.46204 9.17598 7.14797 9.91753 8.21209 10.4218C9.27621 10.926 10.9187 11.2115 12.3944 10.1845L12.4537 10.1252L14.2928 8.6124L17.7929 12.9134L17.8225 12.9727L17.8522 13.0024C18.4788 13.6216 18.464 14.5967 17.8522 15.227C17.8448 15.2344 17.8596 15.2492 17.8522 15.2567C17.8448 15.2604 17.7187 15.3345 17.7039 15.3456L16.4581 13.6549L14.9157 14.7821L16.1318 16.4135C15.6387 16.7472 15.4162 16.9214 14.886 17.2737L13.6106 15.5533L12.0681 16.6804L13.2843 18.3118C13.1767 18.3786 12.9543 18.5269 12.869 18.5788C12.5687 18.7605 11.9903 18.9644 11.4749 18.9941C10.9892 19.02 10.6184 18.9088 10.4367 18.7568L10.4071 18.7271L4.05943 11.6972L3.94078 11.5489L2.39836 10.7777V4.63771C4.21144 4.51906 5.71678 4.15941 6.78832 3.74785C8.05637 3.26214 8.96105 2.86171 9.07228 2.858C9.558 2.84687 9.98439 2.83575 10.3477 2.82834Z" fill="#FFD230"/>
</svg>
