<svg width="22" height="23" viewBox="0 0 22 23" fill="none" xmlns="http://www.w3.org/2000/svg">
<g clip-path="url(#clip0_133_244)">
<path d="M14.6666 21.0667H16.4999C16.9861 21.0667 17.4525 20.8736 17.7963 20.5298C18.1401 20.1859 18.3333 19.7196 18.3333 19.2334V7.31673L13.7499 2.7334H5.49992C5.01369 2.7334 4.54737 2.92655 4.20356 3.27037C3.85974 3.61419 3.66659 4.0805 3.66659 4.56673V7.31673M12.8333 2.7334V6.40007C12.8333 6.8863 13.0264 7.35261 13.3702 7.69643C13.714 8.04024 14.1804 8.2334 14.6666 8.2334H18.3333M8.70825 16.9417L7.33325 15.7959V13.7334M12.8333 15.5667C12.8333 18.6043 10.3708 21.0667 7.33325 21.0667C4.29569 21.0667 1.83325 18.6043 1.83325 15.5667C1.83325 12.5292 4.29569 10.0667 7.33325 10.0667C10.3708 10.0667 12.8333 12.5292 12.8333 15.5667Z" stroke="#F4A8FF" stroke-width="2" stroke-linecap="round" stroke-linejoin="round"/>
</g>
<defs>
<clipPath id="clip0_133_244">
<rect width="22" height="22" fill="white" transform="translate(0 0.899902)"/>
</clipPath>
</defs>
</svg>
