<svg width="27" height="28" viewBox="0 0 27 28" fill="none" xmlns="http://www.w3.org/2000/svg">
<path d="M16.5 13V13.011" stroke="#05DF72" stroke-width="1.98" stroke-linecap="round" stroke-linejoin="round"/>
<path d="M5.6904 10.1157C5.20794 9.7449 4.8374 9.24792 4.61973 8.67969C4.40206 8.11146 4.34574 7.49411 4.45699 6.89588C4.56824 6.29764 4.84274 5.74181 5.25013 5.28982C5.65753 4.83783 6.18196 4.50728 6.76547 4.33471C7.34898 4.16214 7.96885 4.15426 8.55655 4.31195C9.14426 4.46964 9.67692 4.78676 10.0957 5.22825C10.5144 5.66974 10.8029 6.21842 10.9294 6.81363C11.0558 7.40885 11.0152 8.02743 10.812 8.60101" stroke="#05DF72" stroke-width="1.98" stroke-linecap="round" stroke-linejoin="round"/>
<path d="M17.704 6.94971V11.133C19.0654 11.9207 20.1019 13.1674 20.6278 14.6497H22.1029C22.3947 14.6497 22.6744 14.7656 22.8807 14.9719C23.087 15.1782 23.2029 15.458 23.2029 15.7497V17.9497C23.2029 18.2414 23.087 18.5212 22.8807 18.7275C22.6744 18.9338 22.3947 19.0497 22.1029 19.0497H20.6267C20.2571 20.0947 19.629 21.0297 18.8029 21.77V23.9997C18.8029 24.4373 18.6291 24.857 18.3196 25.1664C18.0102 25.4759 17.5905 25.6497 17.1529 25.6497C16.7153 25.6497 16.2956 25.4759 15.9862 25.1664C15.6768 24.857 15.5029 24.4373 15.5029 23.9997V23.3584C15.1394 23.4193 14.7715 23.4498 14.4029 23.4497H10.0029C9.63436 23.4498 9.26642 23.4193 8.90292 23.3584V23.9997C8.90292 24.4373 8.72908 24.857 8.41965 25.1664C8.11021 25.4759 7.69053 25.6497 7.25292 25.6497C6.81531 25.6497 6.39563 25.4759 6.08619 25.1664C5.77676 24.857 5.60292 24.4373 5.60292 23.9997V21.7997V21.77C4.60628 20.879 3.90372 19.7063 3.58825 18.4072C3.27278 17.108 3.35926 15.7437 3.83625 14.4949C4.31325 13.246 5.15826 12.1714 6.25944 11.4133C7.36062 10.6553 8.66604 10.2495 10.0029 10.2497H12.7529L17.7029 6.94971H17.704Z" stroke="#05DF72" stroke-width="1.98" stroke-linecap="round" stroke-linejoin="round"/>
</svg>
