<svg width="23" height="24" viewBox="0 0 23 24" fill="none" xmlns="http://www.w3.org/2000/svg">
<path d="M17.2499 5.69141L14.9365 3.37799C14.5771 3.01852 14.0897 2.81651 13.5814 2.81641H5.74992C5.24159 2.81641 4.75408 3.01834 4.39463 3.37778C4.03519 3.73723 3.83325 4.22474 3.83325 4.73307V20.0664C3.83325 20.5747 4.03519 21.0622 4.39463 21.4217C4.75408 21.7811 5.24159 21.9831 5.74992 21.9831H17.2499C17.7582 21.9831 18.2458 21.7811 18.6052 21.4217C18.9647 21.0622 19.1666 20.5747 19.1666 20.0664" stroke="#00B8DB" stroke-width="2" stroke-linecap="round" stroke-linejoin="round"/>
<path d="M20.4872 13C20.8689 12.6182 21.0834 12.1004 21.0834 11.5605C21.0834 11.0207 20.8689 10.5029 20.4872 10.1211C20.1054 9.73937 19.5877 9.5249 19.0478 9.5249C18.5079 9.5249 17.9901 9.73937 17.6084 10.1211L13.7654 13.966C13.5376 14.1937 13.3708 14.4752 13.2805 14.7844L12.4784 17.5348C12.4543 17.6173 12.4529 17.7047 12.4742 17.7879C12.4955 17.8711 12.5388 17.947 12.5996 18.0078C12.6603 18.0685 12.7363 18.1118 12.8195 18.1331C12.9027 18.1545 12.9901 18.153 13.0726 18.129L15.823 17.3268C16.1322 17.2365 16.4137 17.0698 16.6414 16.8419L20.4872 13Z" stroke="#00B8DB" stroke-width="2" stroke-linecap="round" stroke-linejoin="round"/>
<path d="M7.66675 18.1499H8.62508" stroke="#00B8DB" stroke-width="2" stroke-linecap="round" stroke-linejoin="round"/>
</svg>
