<svg width="18" height="18" viewBox="0 0 18 18" fill="none" xmlns="http://www.w3.org/2000/svg">
<path d="M16.1195 0.806152H1.69492C0.932227 0.806152 0.313477 1.4249 0.313477 2.1876V16.6122C0.313477 17.3749 0.932227 17.9937 1.69492 17.9937H16.1195C16.8822 17.9937 17.501 17.3749 17.501 16.6122V2.1876C17.501 1.4249 16.8822 0.806152 16.1195 0.806152ZM16.1195 16.6187C6.49883 16.6165 1.68848 16.6144 1.68848 16.6122C1.69062 6.9915 1.69277 2.18115 1.69492 2.18115C11.3156 2.1833 16.126 2.18545 16.126 2.1876C16.1238 11.8083 16.1217 16.6187 16.1195 16.6187ZM2.86152 7.24932H5.41172V15.4521H2.86152V7.24932ZM4.1377 6.12783C4.95195 6.12783 5.61582 5.46611 5.61582 4.64971C5.61582 4.4556 5.57759 4.26339 5.5033 4.08405C5.42902 3.90472 5.32014 3.74177 5.18289 3.60451C5.04563 3.46726 4.88268 3.35838 4.70335 3.2841C4.52401 3.20981 4.33181 3.17158 4.1377 3.17158C3.94359 3.17158 3.75138 3.20981 3.57204 3.2841C3.39271 3.35838 3.22976 3.46726 3.0925 3.60451C2.95525 3.74177 2.84637 3.90472 2.77209 4.08405C2.6978 4.26339 2.65957 4.4556 2.65957 4.64971C2.65742 5.46611 3.31914 6.12783 4.1377 6.12783ZM9.5582 11.3937C9.5582 10.3237 9.7623 9.28818 11.0879 9.28818C12.3941 9.28818 12.4135 10.5106 12.4135 11.4624V15.4521H14.9615V10.9532C14.9615 8.74463 14.4846 7.04521 11.9043 7.04521C10.6646 7.04521 9.8332 7.72627 9.4916 8.3708H9.45723V7.24932H7.01016V15.4521H9.5582V11.3937Z" fill="#7008E7"/>
</svg>
