<svg width="17" height="17" viewBox="0 0 17 17" fill="none" xmlns="http://www.w3.org/2000/svg">
<path d="M8.20796 2.57735C8.23673 2.52509 8.27901 2.4815 8.33037 2.45115C8.38173 2.4208 8.4403 2.40479 8.49996 2.40479C8.55962 2.40479 8.61819 2.4208 8.66955 2.45115C8.72091 2.4815 8.76318 2.52509 8.79196 2.57735L10.76 6.31335C10.8069 6.39986 10.8724 6.4749 10.9518 6.53309C11.0311 6.59129 11.1224 6.63118 11.219 6.64992C11.3156 6.66866 11.4152 6.66577 11.5106 6.64147C11.606 6.61716 11.6948 6.57204 11.7706 6.50935L14.622 4.06668C14.6767 4.02216 14.7441 3.99616 14.8146 3.99242C14.8851 3.98867 14.9549 4.00738 15.014 4.04585C15.0732 4.08431 15.1186 4.14055 15.1437 4.20647C15.1689 4.2724 15.1725 4.3446 15.154 4.41268L13.2646 11.2433C13.2261 11.3831 13.143 11.5065 13.028 11.5948C12.913 11.6831 12.7723 11.7315 12.6273 11.7327H4.37329C4.22818 11.7317 4.08736 11.6833 3.97222 11.595C3.85707 11.5067 3.77389 11.3832 3.73529 11.2433L1.84662 4.41335C1.82812 4.34526 1.8317 4.27306 1.85685 4.20714C1.882 4.14122 1.92741 4.08498 1.98656 4.04651C2.0457 4.00805 2.11553 3.98934 2.18598 3.99308C2.25644 3.99683 2.32389 4.02283 2.37862 4.06735L5.22929 6.51001C5.30516 6.57271 5.39396 6.61783 5.48933 6.64213C5.5847 6.66644 5.68427 6.66932 5.78089 6.65059C5.87751 6.63185 5.96878 6.59195 6.04815 6.53376C6.12752 6.47557 6.19303 6.40052 6.23996 6.31401L8.20796 2.57735Z" fill="#FFD230" stroke="#FFD230" stroke-width="1.33333" stroke-linecap="round" stroke-linejoin="round"/>
<path d="M3.83325 14.4H13.1666" stroke="#FFD230" stroke-width="1.33333" stroke-linecap="round" stroke-linejoin="round"/>
</svg>
