<svg width="310" height="49" viewBox="0 0 310 49" fill="none" xmlns="http://www.w3.org/2000/svg">
<path d="M37.1041 30.0735V24.0538C37.1041 22.0011 36.2887 20.0325 34.8372 18.581C33.3857 17.1295 31.4171 16.3141 29.3644 16.3141H25.9246C25.2403 16.3141 24.5841 16.0423 24.1003 15.5585C23.6165 15.0746 23.3447 14.4184 23.3447 13.7342V10.2944C23.3447 8.24167 22.5293 6.27305 21.0778 4.82158C19.6263 3.37011 17.6577 2.55469 15.605 2.55469H11.3052M16.465 2.55469H5.28546C3.86136 2.55469 2.70557 3.71048 2.70557 5.13458V44.6929C2.70557 46.117 3.86136 47.2728 5.28546 47.2728H34.5242C35.9483 47.2728 37.1041 46.117 37.1041 44.6929V23.1938C37.1041 17.72 34.9296 12.4703 31.059 8.59975C27.1885 4.72916 21.9388 2.55469 16.465 2.55469Z" fill="url(#paint0_linear_133_79)"/>
<path d="M37.1041 30.0735V24.0538C37.1041 22.0011 36.2887 20.0325 34.8372 18.581C33.3857 17.1295 31.4171 16.3141 29.3644 16.3141H25.9246C25.2403 16.3141 24.5841 16.0423 24.1003 15.5585C23.6165 15.0746 23.3447 14.4184 23.3447 13.7342V10.2944C23.3447 8.24167 22.5293 6.27305 21.0778 4.82158C19.6263 3.37011 17.6577 2.55469 15.605 2.55469H11.3052M16.465 2.55469H5.28546C3.86136 2.55469 2.70557 3.71048 2.70557 5.13458V44.6929C2.70557 46.117 3.86136 47.2728 5.28546 47.2728H34.5242C35.9483 47.2728 37.1041 46.117 37.1041 44.6929V23.1938C37.1041 17.72 34.9296 12.4703 31.059 8.59975C27.1885 4.72916 21.9388 2.55469 16.465 2.55469Z" stroke="url(#paint1_linear_133_79)" stroke-width="3.43985" stroke-linecap="round" stroke-linejoin="round"/>
<path d="M36.2478 16.9301C37.6993 18.3816 38.5147 20.3502 38.5147 22.4029V21.5429C38.5147 16.0691 36.3402 10.8195 32.4696 6.94887C28.5991 3.07828 23.3494 0.903809 17.8756 0.903809H17.0156C19.0683 0.903809 21.0369 1.71924 22.4884 3.17071C23.9399 4.62218 24.7553 6.59079 24.7553 8.64348V12.0833C24.7553 12.7676 25.0271 13.4238 25.5109 13.9076C25.9948 14.3914 26.651 14.6632 27.3352 14.6632H30.775C32.8277 14.6632 34.7963 15.4787 36.2478 16.9301Z" fill="url(#paint2_linear_133_79)"/>
<g style="mix-blend-mode:color-dodge">
<path d="M21.1852 39.6207C25.4692 35.3367 31.1719 32.7671 37.2189 32.396V32.3028C31.1719 31.9317 25.4692 29.3622 21.1852 25.0782C16.9012 20.7942 14.3317 15.0915 13.9606 9.04443H13.8673C13.4969 15.0917 10.9275 20.7948 6.64337 25.0789C4.95967 26.7626 3.0568 28.1958 1 29.3379V35.3928C3.0568 36.5175 4.95967 37.9363 6.64337 39.62C9.30025 42.2769 11.2976 45.4795 12.52 48.9715H15.3085C16.5311 45.4798 18.5285 42.2774 21.1852 39.6207Z" fill="white"/>
</g>
<path d="M50.4305 37.438V11.95H60.6905C61.9625 11.95 63.1745 12.082 64.3265 12.346C65.5025 12.586 66.5585 13.006 67.4945 13.606C68.4305 14.206 69.1625 15.046 69.6905 16.126C70.2425 17.182 70.5185 18.538 70.5185 20.194C70.5185 21.418 70.3145 22.522 69.9065 23.506C69.4985 24.49 68.8985 25.33 68.1065 26.026C67.3145 26.722 66.3665 27.262 65.2625 27.646L70.9145 37.438H65.1185L60.1505 28.474H55.5785V37.438H50.4305ZM55.5785 23.902H60.3305C61.0745 23.902 61.7465 23.842 62.3465 23.722C62.9705 23.578 63.4985 23.362 63.9305 23.074C64.3865 22.786 64.7345 22.402 64.9745 21.922C65.2385 21.442 65.3705 20.854 65.3705 20.158C65.3945 19.27 65.2025 18.586 64.7945 18.106C64.4105 17.602 63.8585 17.254 63.1385 17.062C62.4425 16.846 61.6145 16.738 60.6545 16.738H55.5785V23.902ZM82.8552 37.69C80.8632 37.69 79.1712 37.294 77.7792 36.502C76.3872 35.71 75.3192 34.594 74.5752 33.154C73.8312 31.69 73.4592 29.986 73.4592 28.042C73.4592 26.074 73.8432 24.358 74.6112 22.894C75.3792 21.406 76.4592 20.242 77.8512 19.402C79.2672 18.562 80.9352 18.142 82.8552 18.142C84.2952 18.142 85.5552 18.382 86.6352 18.862C87.7392 19.342 88.6632 20.014 89.4072 20.878C90.1752 21.742 90.7392 22.75 91.0992 23.902C91.4832 25.03 91.6632 26.254 91.6392 27.574C91.6392 27.91 91.6272 28.234 91.6032 28.546C91.5792 28.858 91.5312 29.17 91.4592 29.482H78.4632C78.5352 30.202 78.7392 30.862 79.0752 31.462C79.4112 32.062 79.8792 32.542 80.4792 32.902C81.1032 33.238 81.8712 33.406 82.7832 33.406C83.3832 33.406 83.9352 33.346 84.4392 33.226C84.9432 33.082 85.3752 32.866 85.7352 32.578C86.0952 32.29 86.3472 31.954 86.4912 31.57H91.4592C91.1472 32.986 90.5592 34.15 89.6952 35.062C88.8552 35.974 87.8352 36.646 86.6352 37.078C85.4352 37.486 84.1752 37.69 82.8552 37.69ZM78.5712 25.954H86.8152C86.7912 25.306 86.6232 24.706 86.3112 24.154C86.0232 23.578 85.5792 23.122 84.9792 22.786C84.4032 22.426 83.6592 22.246 82.7472 22.246C81.8352 22.246 81.0672 22.426 80.4432 22.786C79.8432 23.146 79.3872 23.614 79.0752 24.19C78.7872 24.742 78.6192 25.33 78.5712 25.954ZM102.302 37.69C101.414 37.69 100.502 37.594 99.5663 37.402C98.6303 37.21 97.7663 36.886 96.9743 36.43C96.1823 35.95 95.5103 35.314 94.9583 34.522C94.4063 33.706 94.0463 32.698 93.8783 31.498H98.9903C99.1343 31.93 99.3863 32.302 99.7463 32.614C100.13 32.926 100.562 33.154 101.042 33.298C101.546 33.442 102.05 33.514 102.554 33.514C102.89 33.514 103.226 33.49 103.562 33.442C103.898 33.394 104.21 33.298 104.498 33.154C104.786 33.01 105.014 32.83 105.182 32.614C105.35 32.374 105.434 32.074 105.434 31.714C105.434 31.33 105.314 31.03 105.074 30.814C104.834 30.598 104.498 30.43 104.066 30.31C103.634 30.166 103.142 30.034 102.59 29.914C101.606 29.698 100.55 29.458 99.4223 29.194C98.2943 28.93 97.3223 28.546 96.5063 28.042C96.1703 27.802 95.8703 27.538 95.6063 27.25C95.3423 26.962 95.1263 26.638 94.9583 26.278C94.7903 25.918 94.6583 25.546 94.5623 25.162C94.4663 24.754 94.4183 24.322 94.4183 23.866C94.4183 22.834 94.6343 21.958 95.0663 21.238C95.5223 20.494 96.1223 19.894 96.8663 19.438C97.6103 18.982 98.4383 18.658 99.3503 18.466C100.262 18.25 101.198 18.142 102.158 18.142C103.454 18.142 104.654 18.358 105.758 18.79C106.862 19.198 107.774 19.846 108.494 20.734C109.214 21.598 109.658 22.726 109.826 24.118H105.002C104.906 23.59 104.582 23.17 104.03 22.858C103.478 22.522 102.794 22.354 101.978 22.354C101.69 22.354 101.378 22.378 101.042 22.426C100.73 22.474 100.442 22.558 100.178 22.678C99.9143 22.798 99.6983 22.966 99.5303 23.182C99.3623 23.374 99.2783 23.638 99.2783 23.974C99.2783 24.238 99.3503 24.478 99.4943 24.694C99.6623 24.91 99.8903 25.09 100.178 25.234C100.49 25.378 100.862 25.51 101.294 25.63C102.11 25.822 102.926 26.002 103.742 26.17C104.582 26.314 105.326 26.47 105.974 26.638C106.766 26.806 107.486 27.082 108.134 27.466C108.806 27.85 109.346 28.378 109.754 29.05C110.186 29.698 110.402 30.55 110.402 31.606C110.402 32.806 110.162 33.802 109.682 34.594C109.202 35.362 108.554 35.974 107.738 36.43C106.946 36.886 106.07 37.21 105.11 37.402C104.174 37.594 103.238 37.69 102.302 37.69ZM121.947 37.69C119.163 37.69 117.015 36.982 115.503 35.566C114.015 34.126 113.271 31.966 113.271 29.086V18.466H118.311V28.726C118.311 29.59 118.431 30.358 118.671 31.03C118.935 31.678 119.331 32.194 119.859 32.578C120.411 32.962 121.119 33.154 121.983 33.154C122.919 33.154 123.639 32.95 124.143 32.542C124.647 32.134 124.995 31.594 125.187 30.922C125.379 30.226 125.475 29.494 125.475 28.726V18.466H130.479V29.086C130.479 32.086 129.723 34.27 128.211 35.638C126.723 37.006 124.635 37.69 121.947 37.69ZM134.402 37.438V18.466H138.938L139.37 20.59C139.85 19.918 140.378 19.414 140.954 19.078C141.554 18.718 142.154 18.478 142.754 18.358C143.354 18.238 143.906 18.178 144.41 18.178C145.538 18.178 146.534 18.394 147.398 18.826C148.262 19.258 148.958 19.954 149.486 20.914C149.99 20.218 150.542 19.678 151.142 19.294C151.742 18.886 152.378 18.598 153.05 18.43C153.722 18.262 154.406 18.178 155.102 18.178C156.566 18.178 157.742 18.49 158.63 19.114C159.542 19.714 160.202 20.554 160.61 21.634C161.042 22.714 161.258 23.974 161.258 25.414V37.438H156.218V26.746C156.218 26.314 156.194 25.87 156.146 25.414C156.098 24.958 155.978 24.526 155.786 24.118C155.618 23.71 155.354 23.374 154.994 23.11C154.658 22.846 154.178 22.714 153.554 22.714C152.954 22.714 152.45 22.846 152.042 23.11C151.634 23.374 151.31 23.734 151.07 24.19C150.83 24.622 150.65 25.102 150.53 25.63C150.434 26.134 150.386 26.65 150.386 27.178V37.438H145.346V26.71C145.346 26.302 145.322 25.87 145.274 25.414C145.226 24.958 145.118 24.526 144.95 24.118C144.782 23.71 144.506 23.374 144.122 23.11C143.762 22.846 143.258 22.714 142.61 22.714C141.722 22.714 141.038 22.978 140.558 23.506C140.102 24.01 139.802 24.622 139.658 25.342C139.514 26.038 139.442 26.686 139.442 27.286V37.438H134.402ZM173.734 37.69C171.742 37.69 170.05 37.294 168.658 36.502C167.266 35.71 166.198 34.594 165.454 33.154C164.71 31.69 164.338 29.986 164.338 28.042C164.338 26.074 164.722 24.358 165.49 22.894C166.258 21.406 167.338 20.242 168.73 19.402C170.146 18.562 171.814 18.142 173.734 18.142C175.174 18.142 176.434 18.382 177.514 18.862C178.618 19.342 179.542 20.014 180.286 20.878C181.054 21.742 181.618 22.75 181.978 23.902C182.362 25.03 182.542 26.254 182.518 27.574C182.518 27.91 182.506 28.234 182.482 28.546C182.458 28.858 182.41 29.17 182.338 29.482H169.342C169.414 30.202 169.618 30.862 169.954 31.462C170.29 32.062 170.758 32.542 171.358 32.902C171.982 33.238 172.75 33.406 173.662 33.406C174.262 33.406 174.814 33.346 175.318 33.226C175.822 33.082 176.254 32.866 176.614 32.578C176.974 32.29 177.226 31.954 177.37 31.57H182.338C182.026 32.986 181.438 34.15 180.574 35.062C179.734 35.974 178.714 36.646 177.514 37.078C176.314 37.486 175.054 37.69 173.734 37.69ZM169.45 25.954H177.694C177.67 25.306 177.502 24.706 177.19 24.154C176.902 23.578 176.458 23.122 175.858 22.786C175.282 22.426 174.538 22.246 173.626 22.246C172.714 22.246 171.946 22.426 171.322 22.786C170.722 23.146 170.266 23.614 169.954 24.19C169.666 24.742 169.498 25.33 169.45 25.954ZM186.485 37.438V11.95H191.633V22.534H195.233L201.857 11.95H207.761L199.553 24.334L207.761 37.438H201.713L195.449 27.286H191.633V37.438H186.485ZM215.613 37.69C214.749 37.69 213.909 37.582 213.093 37.366C212.301 37.126 211.593 36.766 210.969 36.286C210.345 35.806 209.853 35.206 209.493 34.486C209.133 33.766 208.953 32.926 208.953 31.966C208.953 30.67 209.217 29.638 209.745 28.87C210.273 28.078 210.981 27.478 211.869 27.07C212.757 26.662 213.777 26.386 214.929 26.242C216.105 26.098 217.317 26.026 218.565 26.026H221.301C221.301 25.33 221.169 24.718 220.905 24.19C220.665 23.638 220.293 23.218 219.789 22.93C219.285 22.618 218.637 22.462 217.845 22.462C217.341 22.462 216.849 22.534 216.369 22.678C215.913 22.798 215.529 22.978 215.217 23.218C214.905 23.458 214.701 23.77 214.605 24.154H209.493C209.637 23.098 209.973 22.198 210.501 21.454C211.029 20.686 211.689 20.062 212.481 19.582C213.273 19.102 214.137 18.754 215.073 18.538C216.033 18.298 217.017 18.178 218.025 18.178C220.785 18.178 222.825 18.97 224.145 20.554C225.465 22.114 226.125 24.334 226.125 27.214V37.438H221.589L221.517 34.99C220.917 35.83 220.233 36.442 219.465 36.826C218.721 37.21 218.001 37.45 217.305 37.546C216.609 37.642 216.045 37.69 215.613 37.69ZM216.765 33.694C217.605 33.694 218.373 33.526 219.069 33.19C219.765 32.854 220.317 32.398 220.725 31.822C221.133 31.246 221.337 30.598 221.337 29.878V29.41H217.881C217.377 29.41 216.885 29.434 216.405 29.482C215.949 29.53 215.529 29.626 215.145 29.77C214.785 29.89 214.497 30.094 214.281 30.382C214.065 30.67 213.957 31.054 213.957 31.534C213.957 32.014 214.077 32.422 214.317 32.758C214.581 33.07 214.929 33.31 215.361 33.478C215.793 33.622 216.261 33.694 216.765 33.694ZM230.062 37.438V18.466H234.598L234.922 20.734C235.402 20.014 235.942 19.474 236.542 19.114C237.142 18.73 237.766 18.478 238.414 18.358C239.062 18.214 239.722 18.142 240.394 18.142C240.706 18.142 240.994 18.154 241.258 18.178C241.522 18.178 241.714 18.178 241.834 18.178V23.038H240.646C239.518 23.038 238.534 23.23 237.694 23.614C236.854 23.998 236.206 24.598 235.75 25.414C235.318 26.23 235.102 27.274 235.102 28.546V37.438H230.062ZM252.699 37.69C250.779 37.69 249.099 37.306 247.659 36.538C246.219 35.746 245.103 34.63 244.311 33.19C243.519 31.726 243.123 29.998 243.123 28.006C243.123 25.966 243.519 24.214 244.311 22.75C245.127 21.262 246.255 20.122 247.695 19.33C249.135 18.538 250.791 18.142 252.663 18.142C254.583 18.142 256.251 18.55 257.667 19.366C259.083 20.182 260.187 21.322 260.979 22.786C261.771 24.25 262.167 26.002 262.167 28.042C262.167 30.034 261.771 31.762 260.979 33.226C260.211 34.666 259.119 35.77 257.703 36.538C256.311 37.306 254.643 37.69 252.699 37.69ZM252.627 33.082C253.731 33.082 254.619 32.842 255.291 32.362C255.963 31.882 256.443 31.258 256.731 30.49C257.043 29.698 257.199 28.87 257.199 28.006C257.199 27.142 257.043 26.314 256.731 25.522C256.443 24.73 255.963 24.082 255.291 23.578C254.643 23.05 253.755 22.786 252.627 22.786C251.547 22.786 250.671 23.05 249.999 23.578C249.327 24.082 248.835 24.73 248.523 25.522C248.235 26.314 248.091 27.142 248.091 28.006C248.091 28.894 248.235 29.722 248.523 30.49C248.835 31.258 249.327 31.882 249.999 32.362C250.671 32.842 251.547 33.082 252.627 33.082Z" fill="url(#paint3_linear_133_79)"/>
<path d="M270.83 37.438L280.586 11.806H287.93L297.578 37.438H290.09L282.926 15.658H285.518L278.174 37.438H270.83ZM277.166 33.118V27.502H291.494V33.118H277.166ZM299.633 37.438V11.806H306.833V37.438H299.633Z" fill="url(#paint4_linear_133_79)"/>
<defs>
<linearGradient id="paint0_linear_133_79" x1="19.9048" y1="2.55469" x2="19.9048" y2="47.2728" gradientUnits="userSpaceOnUse">
<stop stop-color="#C697EC"/>
<stop offset="0.5" stop-color="#AB2FFF"/>
<stop offset="1" stop-color="#7713C5"/>
</linearGradient>
<linearGradient id="paint1_linear_133_79" x1="19.9048" y1="2.55469" x2="19.9048" y2="47.2728" gradientUnits="userSpaceOnUse">
<stop stop-color="#C697EC"/>
<stop offset="0.5" stop-color="#AB2FFF"/>
<stop offset="1" stop-color="#7713C5"/>
</linearGradient>
<linearGradient id="paint2_linear_133_79" x1="27.7652" y1="0.903809" x2="27.7652" y2="22.4029" gradientUnits="userSpaceOnUse">
<stop stop-color="#C697EC"/>
<stop offset="0.5" stop-color="#AB2FFF"/>
<stop offset="1" stop-color="#7713C5"/>
</linearGradient>
<linearGradient id="paint3_linear_133_79" x1="178.73" y1="10.438" x2="178.73" y2="39.438" gradientUnits="userSpaceOnUse">
<stop stop-color="#C697EC"/>
<stop offset="0.5" stop-color="#AB2FFF"/>
<stop offset="1" stop-color="#7713C5"/>
</linearGradient>
<linearGradient id="paint4_linear_133_79" x1="309.843" y1="32.4723" x2="298.468" y2="11.7008" gradientUnits="userSpaceOnUse">
<stop stop-color="#336EE7"/>
<stop offset="1" stop-color="#4C95FB"/>
</linearGradient>
</defs>
</svg>
